# Blender v2.78 (sub 0) OBJ File: ''
# www.blender.org
mtllib materials/ast_lowpoly2.mtl
o Cube
v -0.003408 -0.975834 0.006069
v 0.406822 -1.002914 0.016171
v -0.005388 -0.821669 0.367507
v -0.343172 -0.799355 0.003090
v -0.001121 -0.944012 -0.395115
v 0.305096 -0.724517 -0.296983
v 0.331342 -0.829092 0.377837
v -0.326842 -0.763233 0.335195
v -0.290247 -0.673278 -0.290108
v -0.023493 1.037711 0.127892
v -0.022381 0.779229 -0.273565
v -0.357846 0.731373 0.076190
v -0.044031 0.640277 0.459411
v 0.295138 0.708389 0.145941
v 0.291959 0.697841 -0.218155
v -0.339258 0.731774 -0.274819
v -0.371006 0.741208 0.446459
v 0.281029 0.681497 0.507822
v 0.688356 -0.067150 0.111954
v 0.732127 -0.045497 -0.252798
v 0.832443 0.292719 0.150910
v 0.646336 -0.078730 0.448900
v 0.989446 -0.464847 0.079231
v 0.783955 -0.366000 -0.288763
v 0.828562 0.310782 -0.248019
v 0.708617 0.228837 0.500337
v 0.659989 -0.351757 0.404463
v -0.026046 -0.055738 0.918726
v 0.293809 -0.076286 0.922783
v -0.038794 0.254760 0.919547
v -0.343238 -0.036777 0.838358
v -0.023824 -0.399591 0.909663
v 0.319967 -0.424667 0.943834
v 0.288154 0.243189 0.976732
v -0.408589 0.302637 0.969585
v -0.250679 -0.263435 0.642779
v -0.843595 -0.003877 0.007888
v -0.781920 -0.009643 0.355507
v -0.972735 0.395613 0.018656
v -0.823223 -0.001519 -0.349026
v -0.744160 -0.323044 0.003611
v -0.701037 -0.305402 0.313815
v -0.945363 0.369040 0.424185
v -0.884264 0.368500 -0.361405
v -1.048910 -0.439667 -0.440186
v 0.002966 0.001148 -1.066100
v 0.375986 -0.007465 -0.870075
v 0.000882 -0.394224 -0.929988
v -0.293888 -0.004206 -0.661005
v -0.007152 0.326584 -0.769815
v 0.342309 0.333102 -0.780436
v 0.361561 -0.366255 -0.841312
v -0.314845 -0.314854 -0.734431
v -0.407784 0.411744 -0.959318
v 0.492150 -0.516597 -0.226756
v 0.619928 -0.654698 0.042203
v 0.602539 -0.658354 0.376521
v 0.346744 -0.692945 -0.679149
v -0.000833 -0.621202 -0.617629
v -0.252999 -0.502092 -0.501927
v 0.606579 -0.323302 -0.586466
v 0.677064 -0.019723 -0.641187
v 0.383712 0.157014 -0.377221
v 0.284861 -0.637357 0.665810
v -0.001404 -0.535279 0.576012
v -0.339934 -0.668999 0.672893
v 0.573130 -0.373578 0.728161
v 0.642011 -0.092196 0.851954
v 0.563523 0.209510 0.804040
v -0.692779 -0.695061 0.352997
v -0.704776 -0.705322 0.001368
v -0.554639 -0.554652 -0.279457
v -0.605734 -0.316039 0.624674
v -0.433683 -0.007708 0.494727
v -0.565559 0.246061 0.618081
v -0.521887 -0.263102 -0.521777
v -0.610394 -0.001640 -0.607383
v -0.424518 0.200539 -0.412548
v 0.580000 0.549287 -0.187186
v 0.471002 0.430138 0.150782
v 0.580038 0.532356 0.506952
v 0.324320 0.636489 -0.591996
v -0.007678 0.676016 -0.648217
v -0.300093 0.561507 -0.552132
v 0.232282 0.465227 0.751700
v -0.052054 0.648847 0.901744
v -0.314621 0.496404 0.681909
v -0.626902 0.573213 0.370557
v -0.515966 0.476441 0.040384
v -0.666797 0.649033 -0.305232
v 0.495024 -0.511758 -0.481615
v 0.502808 -0.575856 0.609258
v -0.500851 -0.505831 0.516508
v -0.508396 -0.508397 -0.508397
v 0.523684 0.502610 -0.454505
v 0.345856 0.297653 0.589169
v -0.550908 0.479906 0.607487
v -0.579138 0.568833 -0.553751
vt 0.5000 0.5000
vt 0.2500 0.2500
vt 0.5000 0.2500
vt 0.5000 0.0000
vt 0.0000 0.5000
vt 0.2500 0.5000
vt 0.0000 0.0000
vt 0.2500 0.0000
vt 0.7500 0.2500
vt 0.7500 0.5000
vt 1.0000 0.2500
vt 1.0000 0.5000
vt 1.0000 0.0000
vt 0.5000 0.7500
vt 0.7500 1.0000
vt 0.5000 1.0000
vt 0.7500 0.7500
vt 1.0000 1.0000
vt 0.2500 0.7500
vt 0.2500 1.0000
vt 0.0000 1.0000
vt 0.0000 0.7500
vt 0.2500 0.5000
vt 0.5000 0.2500
vt 0.5000 0.5000
vt 0.2500 0.0000
vt 0.5000 0.0000
vt 0.0000 0.2500
vt 0.2500 0.2500
vt 0.0000 0.0000
vt 0.7500 0.5000
vt 0.7500 0.2500
vt 1.0000 0.5000
vt 0.7500 0.0000
vt 1.0000 0.0000
vt 1.0000 0.2500
vt 0.5000 0.7500
vt 0.7500 1.0000
vt 0.5000 1.0000
vt 1.0000 0.7500
vt 0.7500 0.7500
vt 1.0000 1.0000
vt 0.2500 0.7500
vt 0.0000 0.5000
vt 0.2500 1.0000
vt 0.0000 1.0000
vt 0.0000 0.7500
vt 0.5000 0.5000
vt 0.2500 0.2500
vt 0.5000 0.2500
vt 0.2500 0.0000
vt 0.5000 0.0000
vt 0.0000 0.5000
vt 0.2500 0.5000
vt 0.7500 0.5000
vt 1.0000 0.2500
vt 1.0000 0.5000
vt 0.7500 0.0000
vt 0.7500 0.2500
vt 1.0000 0.0000
vt 0.7500 0.7500
vt 0.5000 0.7500
vt 0.7500 1.0000
vt 0.5000 1.0000
vt 1.0000 1.0000
vt 0.2500 0.7500
vt 0.2500 1.0000
vt 0.0000 1.0000
vt 0.0000 0.7500
vt 0.2500 0.5000
vt 0.5000 0.2500
vt 0.5000 0.5000
vt 0.2500 0.0000
vt 0.5000 0.0000
vt 0.0000 0.2500
vt 0.2500 0.2500
vt 0.0000 0.0000
vt 0.7500 0.2500
vt 0.7500 0.5000
vt 1.0000 0.2500
vt 1.0000 0.5000
vt 0.7500 0.0000
vt 1.0000 0.0000
vt 0.5000 0.7500
vt 0.7500 1.0000
vt 0.5000 1.0000
vt 1.0000 0.7500
vt 0.7500 0.7500
vt 0.2500 0.7500
vt 0.0000 0.5000
vt 0.0000 1.0000
vt 0.0000 0.7500
vt 0.5000 0.5000
vt 0.2500 0.2500
vt 0.5000 0.2500
vt 0.5000 0.0000
vt 0.0000 0.5000
vt 0.2500 0.5000
vt 0.0000 0.0000
vt 0.2500 0.0000
vt 0.7500 0.5000
vt 1.0000 0.2500
vt 0.7500 0.0000
vt 0.7500 0.2500
vt 1.0000 0.0000
vt 0.7500 0.7500
vt 0.5000 0.7500
vt 0.7500 1.0000
vt 0.5000 1.0000
vt 1.0000 0.7500
vt 1.0000 1.0000
vt 0.0000 0.7500
vt 0.2500 1.0000
vt 0.2500 0.7500
vt 0.2500 0.5000
vt 0.5000 0.2500
vt 0.5000 0.5000
vt 0.2500 0.2500
vt 0.0000 0.2500
vt 0.2500 0.0000
vt 0.7500 0.5000
vt 0.7500 0.2500
vt 1.0000 0.5000
vt 0.7500 0.0000
vt 1.0000 0.0000
vt 1.0000 0.2500
vt 0.7500 0.7500
vt 0.5000 0.7500
vt 0.7500 1.0000
vt 1.0000 1.0000
vt 0.2500 0.7500
vt 0.0000 0.7500
vt 0.0000 0.5000
vt 0.2500 1.0000
vt 0.0000 1.0000
vt 0.0000 0.2500
vt 0.7500 0.0000
vt 1.0000 0.7500
vt 0.0000 0.2500
vt 1.0000 0.7500
vt 0.2500 1.0000
vt 0.0000 0.2500
vt 1.0000 0.7500
vn -0.2089 -0.9777 0.0189
vn 0.5464 -0.7434 -0.3858
vn 0.4466 -0.8866 -0.1199
vn 0.6915 -0.7104 -0.1305
vn -0.2633 -0.7328 -0.6274
vn -0.0502 -0.8740 -0.4833
vn 0.7171 -0.6565 -0.2340
vn 0.5897 -0.7373 -0.3296
vn 0.2723 -0.8521 0.4469
vn -0.1994 -0.8162 0.5423
vn 0.0280 -0.8066 0.5904
vn -0.2542 -0.6988 0.6686
vn 0.6314 -0.6035 0.4869
vn -0.3311 -0.9300 -0.1595
vn -0.6844 -0.5625 0.4639
vn -0.7389 -0.6234 -0.2556
vn -0.1755 -0.9194 0.3518
vn -0.5746 -0.3795 0.7251
vn -0.4602 -0.7639 -0.4524
vn -0.4356 -0.8623 -0.2582
vn -0.2584 -0.6758 -0.6902
vn -0.2986 -0.7486 -0.5919
vn 0.6160 0.7730 0.1517
vn 0.0103 0.9541 -0.2993
vn 0.0238 0.9911 0.1311
vn 0.4179 0.7381 -0.5297
vn -0.1206 0.7211 -0.6822
vn 0.5871 0.8095 -0.0052
vn 0.3781 0.9214 -0.0891
vn 0.7699 0.3812 -0.5117
vn -0.6010 0.7977 -0.0498
vn -0.2540 0.9528 -0.1661
vn -0.5035 0.8639 -0.0011
vn -0.0731 0.8512 -0.5197
vn -0.5330 0.4996 -0.6829
vn -0.4586 0.8882 -0.0286
vn 0.0197 0.9155 0.4017
vn -0.3741 0.6847 0.6254
vn -0.0451 0.7176 0.6950
vn -0.5261 0.8434 0.1090
vn -0.1471 0.9301 0.3365
vn -0.4268 0.4277 0.7968
vn 0.2744 0.8708 0.4078
vn 0.6472 0.7434 0.1687
vn 0.6202 0.5785 0.5297
vn 0.5416 0.6021 0.5866
vn 0.6708 0.6273 0.3954
vn 0.9862 0.0170 0.1646
vn 0.8654 -0.2751 -0.4187
vn 0.9592 0.0962 -0.2656
vn 0.7639 -0.3686 -0.5296
vn 0.8810 0.2443 -0.4050
vn 0.9594 -0.2576 0.1146
vn 0.9056 0.3345 0.2605
vn 0.8350 0.2673 -0.4808
vn 0.8686 0.1932 -0.4562
vn 0.8883 0.2457 0.3881
vn 0.9847 -0.0825 0.1534
vn 0.6263 0.5686 0.5333
vn 0.7558 -0.0749 0.6504
vn 0.9236 -0.1143 0.3659
vn 0.7983 -0.3429 0.4951
vn 0.7908 -0.5594 0.2484
vn -0.4756 -0.4509 0.7553
vn 0.1865 -0.0690 0.9800
vn -0.2502 -0.1329 0.9590
vn 0.2627 -0.3752 0.8889
vn 0.2824 0.3818 0.8800
vn -0.0712 0.1762 0.9817
vn -0.5550 -0.5027 0.6627
vn -0.6711 -0.1582 0.7242
vn -0.6953 -0.2405 0.6773
vn -0.4479 0.2781 0.8497
vn -0.4865 -0.2772 0.8285
vn -0.2333 -0.5847 0.7769
vn -0.9584 -0.2836 0.0323
vn -0.9141 -0.1055 0.3915
vn -0.7463 -0.3761 0.5492
vn -0.9543 -0.2561 0.1541
vn -0.6340 -0.0514 0.7716
vn -0.9255 0.3786 -0.0087
vn -0.8555 0.2126 0.4721
vn -0.7886 0.1107 -0.6048
vn -0.8574 0.1087 -0.5031
vn -0.6653 0.0320 -0.7458
vn -0.5113 0.2156 -0.8318
vn -0.4756 -0.0628 -0.8774
vn -0.8842 -0.3381 -0.3222
vn 0.1860 0.5707 -0.7998
vn 0.4790 0.1025 -0.8718
vn -0.0209 0.0744 -0.9970
vn 0.4579 0.4022 -0.7928
vn -0.1269 -0.5509 -0.8249
vn 0.4638 -0.3469 -0.8151
vn 0.3350 -0.7774 -0.5323
vn -0.6378 -0.2833 -0.7161
vn -0.7335 -0.0463 -0.6781
vn -0.4797 0.3545 -0.8026
usemtl Material
s 1
f 1/1/1 6/2/2 2/3/3
f 6/2/2 56/4/4 2/3/3
f 59/5/5 6/2/2 5/6/6
f 6/2/2 91/7/7 55/8/8
f 1/1/1 7/9/9 3/10/10
f 3/10/10 64/11/11 65/12/12
f 56/4/4 7/9/9 2/3/3
f 7/9/9 92/13/13 64/11/11
f 3/10/10 4/14/14 1/1/1
f 4/14/14 70/15/15 71/16/16
f 65/12/12 8/17/17 3/10/10
f 8/17/17 93/18/18 70/15/15
f 1/1/1 9/19/19 5/6/6
f 9/19/19 59/5/5 5/6/6
f 4/14/14 72/20/20 9/19/19
f 9/19/19 94/21/21 60/22/22
f 14/23/23 11/24/24 10/25/25
f 11/24/24 82/26/26 83/27/27
f 14/23/23 79/28/28 15/29/29
f 15/29/29 95/30/30 82/26/26
f 11/24/24 12/31/31 10/25/25
f 16/32/32 89/33/33 12/31/31
f 11/24/24 84/34/34 16/32/32
f 16/32/32 98/35/35 90/36/36
f 12/31/31 13/37/37 10/25/25
f 13/37/37 87/38/38 86/39/39
f 12/31/31 88/40/40 17/41/41
f 17/41/41 97/42/42 87/38/38
f 13/37/37 14/23/23 10/25/25
f 18/43/43 80/44/44 14/23/23
f 13/37/37 85/45/45 18/43/43
f 18/43/43 96/46/46 81/47/47
f 19/48/48 24/49/49 20/50/50
f 20/50/50 61/51/51 62/52/52
f 56/53/4 24/49/49 23/54/53
f 24/49/49 91/7/7 61/51/51
f 20/50/50 21/55/54 19/48/48
f 21/55/54 79/56/28 80/57/44
f 20/50/50 63/58/55 25/59/56
f 25/59/56 95/60/30 79/56/28
f 19/48/48 26/61/57 22/62/58
f 22/62/58 69/63/59 68/64/60
f 80/57/44 26/61/57 21/55/54
f 26/61/57 96/65/46 69/63/59
f 19/48/48 27/66/61 23/54/53
f 27/66/61 56/53/4 23/54/53
f 22/62/58 67/67/62 27/66/61
f 27/66/61 92/68/13 57/69/63
f 32/70/64 29/71/65 28/72/66
f 29/71/65 67/73/62 68/74/60
f 32/70/64 64/75/11 33/76/67
f 33/76/67 92/77/13 67/73/62
f 28/72/66 34/78/68 30/79/69
f 30/79/69 85/80/45 86/81/39
f 29/71/65 69/82/59 34/78/68
f 34/78/68 96/83/46 85/80/45
f 30/79/69 31/84/70 28/72/66
f 31/84/70 75/85/71 74/86/72
f 30/79/69 87/87/38 35/88/73
f 87/87/38 75/85/71 35/88/73
f 28/72/66 36/89/74 32/70/64
f 36/89/74 65/90/12 32/70/64
f 74/86/72 36/89/74 31/84/70
f 36/89/74 93/91/18 66/92/75
f 37/93/76 42/94/77 38/95/78
f 42/94/77 74/96/72 38/95/78
f 71/97/16 42/94/77 41/98/79
f 42/94/77 93/99/18 73/100/80
f 38/95/78 39/101/81 37/93/76
f 39/101/81 88/102/40 89/33/33
f 38/95/78 75/103/71 43/104/82
f 43/104/82 97/105/42 88/102/40
f 37/93/76 44/106/83 40/107/84
f 40/107/84 78/108/85 77/109/86
f 39/101/81 90/110/36 44/106/83
f 44/106/83 98/111/35 78/108/85
f 40/107/84 41/98/79 37/93/76
f 41/98/79 72/112/20 71/97/16
f 40/107/84 76/113/87 45/114/88
f 45/114/88 94/21/21 72/112/20
f 50/115/89 47/116/90 46/117/91
f 51/118/92 62/52/52 47/116/90
f 50/115/89 82/119/26 51/118/92
f 51/118/92 95/30/30 63/120/55
f 47/116/90 48/121/93 46/117/91
f 52/122/94 59/123/5 48/121/93
f 47/116/90 61/124/51 52/122/94
f 52/122/94 91/125/7 58/126/95
f 46/117/91 53/127/96 49/128/97
f 49/128/97 76/129/87 77/109/86
f 59/123/5 53/127/96 48/121/93
f 53/127/96 94/130/21 76/129/87
f 46/117/91 54/131/98 50/115/89
f 50/115/89 84/132/34 83/133/27
f 49/128/97 78/134/85 54/131/98
f 54/131/98 98/135/35 84/132/34
f 1/1/1 5/6/6 6/2/2
f 6/2/2 55/8/8 56/4/4
f 59/5/5 58/136/95 6/2/2
f 6/2/2 58/136/95 91/7/7
f 1/1/1 2/3/3 7/9/9
f 3/10/10 7/9/9 64/11/11
f 56/4/4 57/137/63 7/9/9
f 7/9/9 57/137/63 92/13/13
f 3/10/10 8/17/17 4/14/14
f 4/14/14 8/17/17 70/15/15
f 65/12/12 66/138/75 8/17/17
f 8/17/17 66/138/75 93/18/18
f 1/1/1 4/14/14 9/19/19
f 9/19/19 60/22/22 59/5/5
f 4/14/14 71/16/16 72/20/20
f 9/19/19 72/20/20 94/21/21
f 14/23/23 15/29/29 11/24/24
f 11/24/24 15/29/29 82/26/26
f 14/23/23 80/44/44 79/28/28
f 15/29/29 79/28/28 95/30/30
f 11/24/24 16/32/32 12/31/31
f 16/32/32 90/36/36 89/33/33
f 11/24/24 83/27/27 84/34/34
f 16/32/32 84/34/34 98/35/35
f 12/31/31 17/41/41 13/37/37
f 13/37/37 17/41/41 87/38/38
f 12/31/31 89/33/33 88/40/40
f 17/41/41 88/40/40 97/42/42
f 13/37/37 18/43/43 14/23/23
f 18/43/43 81/47/47 80/44/44
f 13/37/37 86/39/39 85/45/45
f 18/43/43 85/45/45 96/46/46
f 19/48/48 23/54/53 24/49/49
f 20/50/50 24/49/49 61/51/51
f 56/53/4 55/139/8 24/49/49
f 24/49/49 55/139/8 91/7/7
f 20/50/50 25/59/56 21/55/54
f 21/55/54 25/59/56 79/56/28
f 20/50/50 62/52/52 63/58/55
f 25/59/56 63/58/55 95/60/30
f 19/48/48 21/55/54 26/61/57
f 22/62/58 26/61/57 69/63/59
f 80/57/44 81/140/47 26/61/57
f 26/61/57 81/140/47 96/65/46
f 19/48/48 22/62/58 27/66/61
f 27/66/61 57/69/63 56/53/4
f 22/62/58 68/64/60 67/67/62
f 27/66/61 67/67/62 92/68/13
f 32/70/64 33/76/67 29/71/65
f 29/71/65 33/76/67 67/73/62
f 32/70/64 65/90/12 64/75/11
f 33/76/67 64/75/11 92/77/13
f 28/72/66 29/71/65 34/78/68
f 30/79/69 34/78/68 85/80/45
f 29/71/65 68/74/60 69/82/59
f 34/78/68 69/82/59 96/83/46
f 30/79/69 35/88/73 31/84/70
f 31/84/70 35/88/73 75/85/71
f 30/79/69 86/81/39 87/87/38
f 87/87/38 97/42/42 75/85/71
f 28/72/66 31/84/70 36/89/74
f 36/89/74 66/92/75 65/90/12
f 74/86/72 73/141/80 36/89/74
f 36/89/74 73/141/80 93/91/18
f 37/93/76 41/98/79 42/94/77
f 42/94/77 73/100/80 74/96/72
f 71/97/16 70/142/15 42/94/77
f 42/94/77 70/142/15 93/99/18
f 38/95/78 43/104/82 39/101/81
f 39/101/81 43/104/82 88/102/40
f 38/95/78 74/96/72 75/103/71
f 43/104/82 75/103/71 97/105/42
f 37/93/76 39/101/81 44/106/83
f 40/107/84 44/106/83 78/108/85
f 39/101/81 89/33/33 90/110/36
f 44/106/83 90/110/36 98/111/35
f 40/107/84 45/114/88 41/98/79
f 41/98/79 45/114/88 72/112/20
f 40/107/84 77/109/86 76/113/87
f 45/114/88 76/113/87 94/21/21
f 50/115/89 51/118/92 47/116/90
f 51/118/92 63/120/55 62/52/52
f 50/115/89 83/133/27 82/119/26
f 51/118/92 82/119/26 95/30/30
f 47/116/90 52/122/94 48/121/93
f 52/122/94 58/126/95 59/123/5
f 47/116/90 62/52/52 61/124/51
f 52/122/94 61/124/51 91/125/7
f 46/117/91 48/121/93 53/127/96
f 49/128/97 53/127/96 76/129/87
f 59/123/5 60/143/22 53/127/96
f 53/127/96 60/143/22 94/130/21
f 46/117/91 49/128/97 54/131/98
f 50/115/89 54/131/98 84/132/34
f 49/128/97 77/109/86 78/134/85
f 54/131/98 78/134/85 98/135/35
